<svg xmlns="http://www.w3.org/2000/svg" viewBox="0 0 394.93 394.93"><defs><style>.cls-1{fill:#fff;}.cls-2{fill:#393e46;}.cls-3{fill:#0092ca;}</style></defs><g id="Layer_2" data-name="Layer 2"><g id="Layer_1-2" data-name="Layer 1"><path class="cls-1" d="M387,197.47C387,302,302,387,197.46,387S7.93,302,7.93,197.47,93,7.93,197.46,7.93,387,93,387,197.47Z"/><path class="cls-2" d="M197.46,394.93C88.58,394.93,0,306.35,0,197.46S88.58,0,197.46,0,394.93,88.58,394.93,197.46,306.35,394.93,197.46,394.93Zm0-387C93,7.93,7.93,93,7.93,197.46S93,387,197.46,387,387,302,387,197.46,302,7.93,197.46,7.93Z"/><path class="cls-3" d="M249.21,156.24s-53.38-5.68-54.83-12.7c1.25-8,11-27.22,17-20.78s7.7,19.14,11.54,15.49,8-13.76,11.55-11.64S246.23,143,249.21,156.24Z"/><path class="cls-3" d="M190.31,143.86s-19.68,2.51-13.56,6.23S208,161,199,166.27c-19.57,6.35-48.33,12-54,14.55l91.31.11s16.51-7,16.19-12.47-20-10.23-35.43-12.22S181.24,149.22,190.31,143.86Z"/><path class="cls-2" d="M138.72,246.75v26.32h-3.18V242.12c1.2,0,2.4,0,3.6,0,.14,0,.29.22.4.37L156,265.79l1.55,2.19V242.14h3.19v31c-1.1,0-2.19,0-3.28,0-.15,0-.33-.21-.45-.37L143.86,254l-4.78-6.79Z"/><path class="cls-2" d="M97.84,257a15.19,15.19,0,0,1,7.29-12.91c8.57-5.38,21.3-1.56,23.56,10.2a15.53,15.53,0,0,1-5,15.31,15.75,15.75,0,0,1-22.73-2.37A16.35,16.35,0,0,1,97.84,257Zm3.37.47c0,.11,0,.23,0,.34,0,.32,0,.65.07,1a12.74,12.74,0,0,0,3.57,7.94,11.59,11.59,0,0,0,9.84,3.55,11.2,11.2,0,0,0,9-5.7,13.17,13.17,0,0,0,.15-13.63,12,12,0,0,0-16.09-4.82C103.31,248.53,101.39,252.51,101.21,257.47Z"/><path class="cls-2" d="M217.83,273.1c-1.3,0-2.49,0-3.68,0a.87.87,0,0,1-.55-.37c-2.37-3.23-4.72-6.47-7.08-9.71-.52-.71-1-1.41-1.55-2.13a.7.7,0,0,0-.68-.35c-1.79,0-3.58,0-5.38,0-.42,0-.55.11-.54.55,0,3.79,0,7.59,0,11.38v.62h-3.22V242.14l.38,0c3.52,0,7,0,10.56,0a13,13,0,0,1,6,1.32,8.16,8.16,0,0,1,4.6,7.84c0,4.45-2.94,7.4-7.05,8.42-.45.11-.91.19-1.42.3Zm-19.42-15.54h7.07c.37,0,.75,0,1.12,0a9.35,9.35,0,0,0,3.83-1.07,6,6,0,0,0,1.44-9.28,6.79,6.79,0,0,0-4.69-1.9c-2.86-.12-5.73-.08-8.6-.11l-.17,0Z"/><path class="cls-2" d="M94.08,251.26l-2.83,1.31c-.28-.62-.52-1.24-.83-1.82A10.43,10.43,0,0,0,82,244.94a12,12,0,0,0-13.63,9.89,13.6,13.6,0,0,0,1.63,9.7,11.32,11.32,0,0,0,8.48,5.64,11.81,11.81,0,0,0,7.74-1.37,11.61,11.61,0,0,0,4.8-5.75l.24-.59,2.93,1.38c-.16.39-.29.77-.47,1.13a14.23,14.23,0,0,1-12.87,8.39,14.85,14.85,0,0,1-12-4.71,15.14,15.14,0,0,1-4.12-10,16,16,0,0,1,3-10.68,15.76,15.76,0,0,1,20.66-4A13.18,13.18,0,0,1,94,250.85l.09.28A.32.32,0,0,1,94.08,251.26Z"/><path class="cls-2" d="M278,262.46l2.91,1.38a12.6,12.6,0,0,1-1.86,3.54c-3.37,4.47-7.93,6.32-13.43,5.95a14.65,14.65,0,0,1-9.95-4.62,15.16,15.16,0,0,1-4.17-9.81,16,16,0,0,1,3-10.88A15.75,15.75,0,0,1,275.14,244a13.32,13.32,0,0,1,5.7,7.26l-2.91,1.34c-.17-.4-.32-.8-.49-1.18a10.53,10.53,0,0,0-8.76-6.46,12.06,12.06,0,0,0-13.61,9.87,13.6,13.6,0,0,0,1.64,9.75,11.3,11.3,0,0,0,8.48,5.62,11.71,11.71,0,0,0,7.69-1.36,11.54,11.54,0,0,0,4.82-5.72Z"/><path class="cls-2" d="M219.48,273.1c.52-1.19,1-2.31,1.48-3.43l11.7-27.1a.64.64,0,0,1,.71-.47c.91,0,1.82,0,2.73,0a.58.58,0,0,1,.64.43l11.95,27.69c.41.93.81,1.87,1.25,2.88-1.14,0-2.21,0-3.28,0-.11,0-.25-.21-.31-.35q-1.53-3.54-3-7.09a.62.62,0,0,0-.67-.47q-8,0-16,0a.62.62,0,0,0-.67.46c-1,2.35-2,4.69-3,7a.58.58,0,0,1-.64.44C221.44,273.08,220.51,273.1,219.48,273.1Zm22.37-10.91-7.2-16.71-7.2,16.71Z"/><path class="cls-2" d="M329.71,248.18,327,249.71l-.35-.73a7,7,0,0,0-7.38-4.17,6.79,6.79,0,0,0-4.46,1.94,4.56,4.56,0,0,0,.8,7.09,18.15,18.15,0,0,0,4.91,1.86,18.33,18.33,0,0,1,5.73,2.41,7.77,7.77,0,0,1,3.73,6,8,8,0,0,1-4,7.72c-3.62,2.3-9.65,2.13-13.13-.84a12.34,12.34,0,0,1-3.48-5.17l2.76-1.44c.29.59.55,1.17.86,1.72a7.43,7.43,0,0,0,4.92,4,8.2,8.2,0,0,0,6.4-.9,4.93,4.93,0,0,0-.05-8.55,14.75,14.75,0,0,0-4.56-1.81,22.61,22.61,0,0,1-5.43-2c-5.61-3-4.94-10.31-.48-13.3a11.68,11.68,0,0,1,12.9.34A9.79,9.79,0,0,1,329.71,248.18Z"/><path class="cls-2" d="M179.6,245.13v27.95h-3.26v-27.9H166v-3H189.9v3Z"/><path class="cls-2" d="M296.52,273.09h-3.27V245.17H282.89v-3h23.94v3H296.52Z"/><path class="cls-2" d="M211.13,219.45A11,11,0,1,1,222,230.55,10.91,10.91,0,0,1,211.13,219.45Zm19.59,0,.14,0a32.49,32.49,0,0,0-.73-3.25,8.54,8.54,0,0,0-12.7-4.4,9.13,9.13,0,0,0-3.74,9.51A8.59,8.59,0,0,0,224,228.22,8.69,8.69,0,0,0,230.72,219.46Z"/><path class="cls-2" d="M124.77,230.38V208.56c.06,0,.09-.06.13-.06,2.68,0,5.37-.09,8,.13a10.56,10.56,0,0,1,9.67,8.75,10.77,10.77,0,0,1-9.66,12.8C130.25,230.43,127.52,230.33,124.77,230.38Zm2.33-19.84a2.45,2.45,0,0,0-.08.36q0,8.43,0,16.87c0,.37.17.42.47.41,1.56,0,3.13,0,4.68-.06a8.32,8.32,0,0,0,8-6.56,8.55,8.55,0,0,0-2.69-8.8,7.09,7.09,0,0,0-4-1.85C131.35,210.69,129.22,210.65,127.1,210.54Z"/><path class="cls-2" d="M195,221.5v8.79h-2.25V208.52l.42,0c2.41,0,4.82,0,7.23,0a8.88,8.88,0,0,1,4.75,1.18,6.16,6.16,0,0,1-1.48,11,16.13,16.13,0,0,1-1.67.44c2.22,3,4.43,6,6.72,9.17-1,0-1.82,0-2.69,0-.13,0-.27-.22-.37-.36q-3-4-5.89-8.06a.84.84,0,0,0-.77-.4C197.67,221.52,196.37,221.5,195,221.5Zm0-2.11c2,0,3.87.05,5.78,0a5.1,5.1,0,0,0,3.8-1.64,4.14,4.14,0,0,0,.8-4.23,3.79,3.79,0,0,0-3.42-2.65c-1.85-.21-3.74-.15-5.61-.21H195Z"/><path class="cls-2" d="M284.5,221.19c2.21,3,4.42,6,6.7,9.13-1,0-1.83,0-2.7,0-.13,0-.26-.22-.37-.36-1.95-2.67-3.91-5.34-5.85-8a.93.93,0,0,0-.86-.43c-1.29,0-2.57,0-3.92,0v8.8h-2.24V208.51l.47,0c2.33,0,4.67,0,7,0a9.1,9.1,0,0,1,4.87,1.16,5.78,5.78,0,0,1,2.83,5.65,5.7,5.7,0,0,1-3.73,5.2A22.82,22.82,0,0,1,284.5,221.19Zm-7-10.49v8.69c2,0,3.87.05,5.77,0a6.73,6.73,0,0,0,2.24-.53,4.12,4.12,0,0,0,2.6-4.1,3.87,3.87,0,0,0-2.82-3.68,6,6,0,0,0-1.72-.34c-1.93-.06-3.86-.05-5.79-.06A1,1,0,0,0,277.53,210.7Z"/><path class="cls-2" d="M86.57,215l-2,.93c-.14-.32-.26-.63-.4-.92a7.57,7.57,0,0,0-7.39-4.52,8.49,8.49,0,0,0-8.49,8.16,9.32,9.32,0,0,0,2.7,7.47c3.34,3.32,10.69,3.51,13.32-2.6.08-.2.17-.39.28-.63l2,1a10,10,0,0,1-4.07,5.09,10.91,10.91,0,0,1-15.18-3.65,11.15,11.15,0,0,1,.23-12,10.34,10.34,0,0,1,10-5,9.62,9.62,0,0,1,8.71,5.93c.06.14.11.27.16.41S86.53,214.83,86.57,215Z"/><path class="cls-2" d="M161.13,228.2v2.09H147.38V208.53H161v2.06H149.67v7.57H160v2.12H149.66v7.92Z"/><path class="cls-2" d="M270.45,230.31H256.71v-21.8h13.62v2.07H259v7.59h10.36v2.1H259v7.94h11.46Z"/><path class="cls-2" d="M173.76,208.43c3,.06,6,0,8.91.2a6.27,6.27,0,0,1,6,5.62,6.44,6.44,0,0,1-5.24,7.24,15.93,15.93,0,0,1-3,.33c-1.45.06-2.9,0-4.42,0v8.47h-2.24ZM176,219.66c1.93,0,3.79.08,5.63,0a6.22,6.22,0,0,0,2.55-.75,4.08,4.08,0,0,0,2.15-4.4,3.91,3.91,0,0,0-3-3.46,7.56,7.56,0,0,0-1.89-.32c-1.63-.06-3.26,0-4.9-.06-.45,0-.59.12-.59.58,0,2.32,0,4.63,0,6.94Z"/><path class="cls-2" d="M240,221.83v8.46h-2.24V208.55s.08-.05.11-.05c2.94,0,5.89-.06,8.81.13a6.26,6.26,0,0,1,6,5.63,6.43,6.43,0,0,1-5.25,7.23,15.84,15.84,0,0,1-3,.33C242.94,221.87,241.49,221.83,240,221.83Zm0-2.17c1.89,0,3.74.08,5.58,0a6.54,6.54,0,0,0,2.55-.75,4.09,4.09,0,0,0,2.17-4.34,3.91,3.91,0,0,0-2.79-3.48,6.73,6.73,0,0,0-1.88-.36c-1.76-.06-3.53,0-5.29-.06a2.73,2.73,0,0,0-.34.06Z"/><path class="cls-2" d="M101.69,208.49c.9,0,1.69,0,2.47,0a.86.86,0,0,1,.53.38q3.12,4.67,6.2,9.37l.44.64c.14-.19.26-.34.36-.5,2.12-3.16,4.24-6.31,6.34-9.48a.8.8,0,0,1,.79-.43c.68,0,1.35,0,2.11,0l-.39.61c-2.56,3.79-5.1,7.59-7.67,11.37a2.36,2.36,0,0,0-.43,1.43c0,2.59,0,5.18,0,7.77v.63h-2.32v-.58c0-2.68,0-5.37,0-8.05a2,2,0,0,0-.31-1q-3.84-5.78-7.71-11.54Z"/><path class="cls-2" d="M320.39,218.9c.82-1.21,1.6-2.37,2.37-3.53,1.45-2.16,2.91-4.33,4.35-6.5a.69.69,0,0,1,.7-.39c.69,0,1.38,0,2.16,0-.15.23-.24.4-.35.56q-3.9,5.77-7.78,11.57a2.18,2.18,0,0,0-.33,1.11c0,2.65,0,5.29,0,7.94v.63h-2.32v-.58c0-2.66,0-5.33,0-8a2.18,2.18,0,0,0-.33-1.11q-3.82-5.76-7.68-11.5l-.41-.63c.91,0,1.75,0,2.58,0,.14,0,.31.21.42.36l6.29,9.51Z"/><path class="cls-2" d="M302.16,230.31h-2.32V210.66h-7.32v-2.15h16.86v2.11h-7.22Z"/><path class="cls-2" d="M90.81,208.51H93v.73c0,6.09,0,12.17,0,18.25,0,.57.15.71.71.7,3,0,6,0,8.93,0h.7v2.12H90.81Z"/></g></g></svg>